<?xml version="1.0" encoding="UTF-8"?><svg id="Layer_1" xmlns="http://www.w3.org/2000/svg" viewBox="0 0 1193.54 1197.56"><defs><style>.cls-1{fill:#fff;}</style></defs><path class="cls-1" d="M800.63,261.54h-91.15v672.54h91.15v-302.41h309.1c3.49,6.1.25,13.21-.45,19.4-32.31,287.18-280.18,493.03-572.49,458.47-148.78-17.59-275.56-94.09-361.34-217.2-43.69-62.7-72.2-135.4-86.51-210.46H2.46c33.48,188.8,151.16,365.44,324.11,452.05,158.06,79.16,351.77,85.38,514.34,13.46,224.46-99.3,374.31-340.22,350.07-589.88-.47-4.79,1.55-11.03-1.77-14.58h-388.57v-281.39ZM642.87,934.09V348.53l-1.75-1.75h-87.06v587.31h88.82Z"/><path d="M623,0c4.8,2.73,12,1.27,16.75,1.6,261.44,18.58,499.47,217.59,548.01,479.73.63,3.42,3.38,6.88,2.03,11.4h-85.89l-1.55-1.96c-8.88-42.11-24.57-83.45-44.17-121.67C919.7,99.09,574.53,2,317.38,170.45c-119.07,78-205.93,207.67-226.04,349.79-.47,3.35-2.52,21.67-1.07,22.56l304.93-.38,1.09-280.87h88.82v672.54h-88.23l-.59-302.4H.12c.28-11.26-.37-22.62,0-33.87,2.03-61.1,11.82-126.02,30.46-184.99C101.22,189.29,321.7,13.35,556.91,2.38l12.33-2.38h53.76Z"/><path d="M800.63,261.54v281.39h388.57c3.32,3.55,1.3,9.79,1.77,14.58,24.24,249.66-125.61,490.58-350.07,589.88-162.57,71.92-356.28,65.69-514.34-13.46C153.62,1047.33,35.94,870.68,2.46,681.88h86.48c14.31,75.07,42.83,147.77,86.51,210.46,85.79,123.11,212.57,199.61,361.34,217.2,292.31,34.56,540.18-171.29,572.49-458.47.7-6.19,3.94-13.3.45-19.4h-309.1v302.41h-91.15V261.54h91.15Z"/><polygon points="642.87 934.09 554.05 934.09 554.05 346.78 641.11 346.78 642.87 348.53 642.87 934.09"/></svg>